<svg xmlns="http://www.w3.org/2000/svg" viewBox="0 0 471.385 352.678" id="sir-teaching-maths-in-the-class"><g data-name="Layer 2"><g data-name="Layer 1"><path fill="#efedef" d="M306.76753,352.67256c15.255-4.769,28.94232-9.64118,45.40836-18.88808,16.98237-9.53792,92.422-54.9275,102.23218-133.48387a149.84239,149.84239,0,0,0-6.25221-63.98664c-3.03223-8.89017-9.322-26.74559-25.19662-44.40388C403.52667,70.2808,381.3529,61.89758,368.35092,57.15678a157.56664,157.56664,0,0,0-61.22666-9.09669c-11.791.3849-32.60352,1.24857-56.26055,11.58444-15.4334,6.74037-25.02764,14.42891-39.16553,25.91947-22.39908,18.22155-25.34682,25.80682-64.53113,63.43276-10.75832,10.32649-19.60154,18.46563-33.10107,26.48274-9.35955,5.55752-16.926,8.66486-30.88558,14.335-34.31208,13.94076-44.08147,16.76342-55.30918,24.61154C6.03541,229.69988,7.44974,246.35672,6.511,249.94283a70.52711,70.52711,0,0,0-1.66162,28.135c2.86325,18.84114,13.01137,31.15781,19.31052,38.61166a106.1735,106.1735,0,0,0,30.88557,24.82111,197.37436,197.37436,0,0,0,25.30927,11.162Z"></path><path fill="#6a8d99" d="M355.19922,339.35533l-.459-.81836c22.43653-12.6045,96.40918-59.85547,106.248-138.69141a156.16384,156.16384,0,0,0-6.49023-66.4375c-2.7959-8.19824-9.34375-27.39746-26.14258-46.08984-20.582-22.90137-44.07324-31.4668-56.69336-36.06836a163.43445,163.43445,0,0,0-63.59863-9.45313c-11.66407.37988-33.374,1.085-58.43262,12.02637l-.375-.85938c25.22363-11.01464,47.88574-11.751,58.77637-12.10449A164.20564,164.20564,0,0,1,371.98438,50.367c12.69628,4.63086,36.33007,13.24805,57.06835,36.32422,16.92872,18.835,23.51954,38.16114,26.334,46.41407a157.16054,157.16054,0,0,1,6.5332,66.85742C452.02637,279.23423,377.7334,326.69712,355.19922,339.35533Z"></path><path fill="#935b50" d="M385.02953,129.08086V352.44725H435.5281V129.08086a2.42315,2.42315,0,0,0-2.42315-2.42315H387.45268A2.42315,2.42315,0,0,0,385.02953,129.08086Z"></path><rect width="44.925" height="33.367" x="387.816" y="167.294" fill="#e19974" rx="2.423"></rect><rect width="44.925" height="33.367" x="387.816" y="130.292" fill="#e19974" rx="2.423"></rect><path fill="#d6694b" d="M429.88776 159.42442a1.497 1.497 0 11-2.1153 2.11535c.5329-.76587.59851-1.0581.83215-1.2832C428.83185 160.02561 429.12646 159.9575 429.88776 159.42442zM427.77246 132.41191a1.497 1.497 0 112.1153 2.11529c-.76593-.5329-1.05817-.59845-1.28315-.83209C428.3736 133.46781 428.30548 133.17326 427.77246 132.41191zM390.66986 134.5272a1.497 1.497 0 112.1153-2.11529c-.5329.76593-.59851 1.05816-.8321 1.2832C391.72577 133.92607 391.43121 133.99418 390.66986 134.5272zM392.78516 161.53977a1.497 1.497 0 11-2.1153-2.11535c.76593.533 1.05817.59851 1.2832.83215C392.184 160.48387 392.25214 160.77842 392.78516 161.53977zM429.88776 196.426a1.497 1.497 0 11-2.1153 2.11536c.5329-.766.59851-1.05823.83215-1.2832C428.83185 197.0272 429.12646 196.95909 429.88776 196.426zM427.77246 169.41343a1.497 1.497 0 112.1153 2.11536c-.76593-.533-1.05817-.59851-1.28315-.83216C428.3736 170.46934 428.30548 170.17478 427.77246 169.41343zM390.66986 171.52879a1.497 1.497 0 112.1153-2.11536c-.5329.766-.59851 1.05823-.8321 1.2832C391.72577 170.92759 391.43121 170.99571 390.66986 171.52879zM392.78516 198.54136a1.497 1.497 0 11-2.1153-2.11536c.76593.533 1.05817.59852 1.2832.83216C392.184 197.48545 392.25214 197.78 392.78516 198.54136z"></path><rect width="44.925" height="33.367" x="387.816" y="241.297" fill="#e19974" rx="2.423"></rect><rect width="44.925" height="33.367" x="387.816" y="278.299" fill="#e19974" rx="2.423"></rect><rect width="13.812" height="5.089" x="403.373" y="142.432" fill="#d6694b" rx=".939"></rect><rect width="13.812" height="5.089" x="403.373" y="253.437" fill="#d6694b" rx=".939"></rect><rect width="13.812" height="5.089" x="403.373" y="290.439" fill="#d6694b" rx=".939"></rect><rect width="13.812" height="5.089" x="403.373" y="179.434" fill="#d6694b" rx=".939"></rect><path fill="#d6694b" d="M429.88776 270.42906a1.497 1.497 0 11-2.1153 2.11535c.5329-.76587.59851-1.0581.83215-1.2832C428.83185 271.03025 429.12646 270.96214 429.88776 270.42906zM427.77246 243.41661a1.497 1.497 0 112.1153 2.11523c-.76593-.53284-1.05817-.59851-1.28315-.83215C428.3736 244.47239 428.30548 244.17784 427.77246 243.41661zM390.66986 245.53184a1.497 1.497 0 112.1153-2.11523c-.5329.76586-.59851 1.0581-.8321 1.28308C391.72577 244.93077 391.43121 244.99876 390.66986 245.53184zM392.78516 272.54441a1.497 1.497 0 11-2.1153-2.11535c.76593.533 1.05817.59851 1.2832.83215C392.184 271.4885 392.25214 271.78306 392.78516 272.54441zM429.88776 307.43064a1.497 1.497 0 11-2.1153 2.11536c.5329-.766.59851-1.05823.83215-1.2832C428.83185 308.03184 429.12646 307.96372 429.88776 307.43064zM427.77246 280.41807a1.497 1.497 0 112.1153 2.11536c-.76593-.533-1.05817-.59851-1.28315-.83216C428.3736 281.474 428.30548 281.17942 427.77246 280.41807zM390.66986 282.53343a1.497 1.497 0 112.1153-2.11536c-.5329.766-.59851 1.05823-.8321 1.2832C391.72577 281.93223 391.43121 282.00035 390.66986 282.53343zM392.78516 309.546a1.497 1.497 0 11-2.1153-2.11536c.76593.533 1.05817.59851 1.2832.83216C392.184 308.49009 392.25214 308.78465 392.78516 309.546z"></path><path fill="#7ca1b1" d="M399.68046,299.20077s24.6496.50022,28.39437-3.66491c0,0-8.072,28.92053-1.9782,43.10982l-27.416-2.89518S401.88671,313.35221,399.68046,299.20077Z"></path><path fill="#f65b2b" d="M393.64475,302.74378s24.6496.50021,28.39437-3.66492c0,0-8.072,28.92053-1.97819,43.10982l-27.416-2.89518S395.851,316.89521,393.64475,302.74378Z"></path><path fill="#fff" d="M396.72805,305.46634s24.6496.50022,28.39437-3.66491c0,0-8.072,28.92053-1.9782,43.10982l-27.41605-2.89518S398.9343,319.61778,396.72805,305.46634Z"></path><path fill="#ffba55" d="M399.7459,189.92911s24.6496.50022,28.39437-3.66491c0,0-8.072,28.92052-1.9782,43.10982L398.746,226.47883S401.95215,204.08055,399.7459,189.92911Z"></path><path fill="#f65b2b" d="M393.71019,193.47211s24.6496.50022,28.39437-3.66491c0,0-8.072,28.92053-1.97819,43.10982l-27.416-2.89518S395.91645,207.62355,393.71019,193.47211Z"></path><path fill="#fff" d="M396.79349,196.19468s24.6496.50022,28.39437-3.66491c0,0-8.072,28.92053-1.9782,43.10982l-27.416-2.89519S398.99974,210.34612,396.79349,196.19468Z"></path><rect width="44.925" height="33.367" x="387.816" y="315.3" fill="#e19974" rx="2.423"></rect><rect width="13.812" height="5.089" x="403.373" y="327.44" fill="#d6694b" rx=".939"></rect><path fill="#d6694b" d="M429.88776 344.43223a1.497 1.497 0 11-2.1153 2.11523c.5329-.76586.59851-1.0581.83215-1.28308C428.83185 345.0333 429.12646 344.96519 429.88776 344.43223zM427.77246 317.41966a1.497 1.497 0 112.1153 2.11535c-.76593-.533-1.05817-.59851-1.28315-.83215C428.3736 318.47556 428.30548 318.181 427.77246 317.41966zM390.66986 319.535a1.497 1.497 0 112.1153-2.11535c-.5329.76587-.59851 1.0581-.8321 1.2832C391.72577 318.93382 391.43121 319.00193 390.66986 319.535zM392.78516 346.54746a1.497 1.497 0 11-2.1153-2.11523c.76593.53284 1.05817.59851 1.2832.83215C392.184 345.49168 392.25214 345.78623 392.78516 346.54746z"></path><rect width="44.925" height="33.367" x="387.816" y="204.296" fill="#e19974" rx="2.423"></rect><rect width="13.812" height="5.089" x="403.373" y="216.436" fill="#d6694b" rx=".939"></rect><path fill="#d6694b" d="M429.88776 233.42759a1.497 1.497 0 11-2.1153 2.11524c.5329-.76587.59851-1.05811.83215-1.28309C428.83185 234.02867 429.12646 233.96055 429.88776 233.42759zM427.77246 206.415a1.497 1.497 0 112.1153 2.11535c-.76593-.53295-1.05817-.59851-1.28315-.83215C428.3736 207.47093 428.30548 207.17637 427.77246 206.415zM390.66986 208.53037a1.497 1.497 0 112.1153-2.11535c-.5329.76587-.59851 1.0581-.8321 1.2832C391.72577 207.92918 391.43121 207.99729 390.66986 208.53037zM392.78516 235.54283a1.497 1.497 0 11-2.1153-2.11524c.76593.53284 1.05817.59851 1.2832.83215C392.184 234.487 392.25214 234.7816 392.78516 235.54283z"></path><rect width="259.028" height="217.674" x="76.865" fill="#904d24" rx="3.214"></rect><rect width="232.906" height="195.722" x="89.926" y="10.976" fill="#558031" rx="2.89"></rect><path fill="#fff" d="M118.29791 77.82311a11.16649 11.16649 0 012.68155.29978 5.9999 5.9999 0 012.06914.91219 4.11444 4.11444 0 011.32015 1.55117 4.97 4.97 0 01.463 2.2195v6.09834a1.69078 1.69078 0 01-.39467 1.157 3.971 3.971 0 01-.93923.77559 9.73225 9.73225 0 01-4.98218 1.06162 11.37517 11.37517 0 01-2.6-.27228 6.13381 6.13381 0 01-1.98755-.81684 3.73592 3.73592 0 01-1.27935-1.388 4.11165 4.11165 0 01-.44922-1.96 3.68737 3.68737 0 011.11617-2.886 6.02167 6.02167 0 013.45759-1.25231l3.56623-.38137v-.19069a1.1672 1.1672 0 00-.694-1.12946 4.68078 4.68078 0 00-2.00131-.34012 9.281 9.281 0 00-2.0146.21728 10.80913 10.80913 0 00-1.76936.54456 1.88594 1.88594 0 01-.59911-.74809 2.37156 2.37156 0 01-.24478-1.04878 1.74743 1.74743 0 01.34012-1.12946 2.63477 2.63477 0 011.04833-.7215 8.16022 8.16022 0 011.86471-.43546A16.18689 16.18689 0 01118.29791 77.82311zm.21773 10.69961a6.13568 6.13568 0 001.02082-.09535 2.48487 2.48487 0 00.83059-.25853V85.9906l-1.96051.16319a3.0177 3.0177 0 00-1.2523.32728.88023.88023 0 00-.49.81684 1.08374 1.08374 0 00.42218.88469A2.31242 2.31242 0 00118.51564 88.52272zM132.80806 74.50166a8.78288 8.78288 0 012.74985.39512 6.41078 6.41078 0 012.04165 1.07537 4.53137 4.53137 0 011.2798 1.60618 4.61293 4.61293 0 01.43547 1.98756q0 2.85894-3.2394 5.44469l-3.56669 2.85848h6.53381a4.51518 4.51518 0 01.31308.76275 3.2639 3.2639 0 01.14989 1.00661 1.89591 1.89591 0 01-.43547 1.40266 1.5744 1.5744 0 01-1.14367.42171h-9.44684a2.899 2.899 0 01-.93923-1.04786 3.17343 3.17343 0 01-.34012-1.51084 3.00692 3.00692 0 01.38092-1.56584A3.88473 3.88473 0 01128.425 86.317l3.75692-3.21236q.70821-.59818 1.17071-1.07537a9.11745 9.11745 0 00.749-.85717 2.931 2.931 0 00.408-.70775 1.77462 1.77462 0 00.12284-.62615 1.36186 1.36186 0 00-.66695-1.19822 2.957 2.957 0 00-1.64743-.43546 5.24946 5.24946 0 00-1.9463.34012 7.76979 7.76979 0 00-1.42924.72149 2.71094 2.71094 0 01-.7623-.81684 2.14566 2.14566 0 01-.29932-1.14321 2.24591 2.24591 0 011.3339-2.10948A7.82882 7.82882 0 01132.80806 74.50166zM149.60556 90.10139a2.69681 2.69681 0 01-.80309.17694 9.69322 9.69322 0 01-1.12992.06784 3.1527 3.1527 0 01-1.68823-.36671 1.749 1.749 0 01-.5716-1.56584V85.41854h-4.11079a2.68017 2.68017 0 01-.31308-.78934 4.02544 4.02544 0 01-.12239-.98 1.99592 1.99592 0 01.43547-1.42924 1.55746 1.55746 0 011.17071-.44921h2.94008V77.197a7.83011 7.83011 0 01.83059-.17694 6.56487 6.56487 0 011.10241-.09534 3.07252 3.07252 0 011.67448.38137 1.80156 1.80156 0 01.58536 1.60618v2.85849h4.0292q.13545.32729.28557.80308a3.30944 3.30944 0 01.14989.99378 1.95456 1.95456 0 01-.43546 1.40266 1.52358 1.52358 0 01-1.14367.4483h-2.88553zM156.35664 73.73982a7.38541 7.38541 0 01.87139-.17693 7.80793 7.80793 0 011.2248-.09535 6.4426 6.4426 0 011.07537.08159 1.82869 1.82869 0 01.80309.32637 1.47713 1.47713 0 01.49.66741 3.10269 3.10269 0 01.16364 1.10287v2.6678a6.59675 6.59675 0 011.2931-.38138 7.73742 7.73742 0 011.34765-.10909 6.68941 6.68941 0 012.47757.463 6.14821 6.14821 0 012.06869 1.34765 6.26532 6.26532 0 011.41595 2.192 9.17245 9.17245 0 01-.01375 6.11118 5.88664 5.88664 0 01-1.48379 2.192 6.29179 6.29179 0 01-2.32768 1.32014 9.72353 9.72353 0 01-3.03542.44922 9.61751 9.61751 0 01-3.04917-.42171 8.00191 8.00191 0 01-2.1237-1.04787 2.56244 2.56244 0 01-1.19776-2.17824zm6.37063 14.51062a2.36223 2.36223 0 001.9463-.8581 3.97421 3.97421 0 00.69445-2.54495 3.91825 3.91825 0 00-.70774-2.55962 2.3614 2.3614 0 00-1.906-.84342 3.56785 3.56785 0 00-.93923.10909 5.43825 5.43825 0 00-.85763.32637V87.815a2.80334 2.80334 0 00.72149.31262A3.82106 3.82106 0 00162.72727 88.25044zM177.50971 74.50166a8.78286 8.78286 0 012.74984.39512 6.41078 6.41078 0 012.04165 1.07537 4.53151 4.53151 0 011.27981 1.60618 4.61307 4.61307 0 01.43546 1.98756q0 2.85894-3.2394 5.44469l-3.56669 2.85848h6.53381a4.51435 4.51435 0 01.31308.76275 3.2636 3.2636 0 01.14989 1.00661 1.89591 1.89591 0 01-.43547 1.40266 1.57439 1.57439 0 01-1.14366.42171h-9.44685a2.899 2.899 0 01-.93923-1.04786 3.17343 3.17343 0 01-.34012-1.51084 3.007 3.007 0 01.38092-1.56584 3.88473 3.88473 0 01.84388-1.02128l3.75692-3.21236q.70821-.59818 1.17072-1.07537a9.12037 9.12037 0 00.749-.85717 2.93054 2.93054 0 00.408-.70775 1.77464 1.77464 0 00.12285-.62615 1.36188 1.36188 0 00-.667-1.19822 2.957 2.957 0 00-1.64744-.43546 5.24946 5.24946 0 00-1.9463.34012 7.76979 7.76979 0 00-1.42924.72149 2.71078 2.71078 0 01-.76229-.81684 2.14557 2.14557 0 01-.29933-1.14321 2.24592 2.24592 0 011.3339-2.10948A7.82886 7.82886 0 01177.50971 74.50166zM186.05812 82.53347a2.6884 2.6884 0 01-.31308-.78934 4.03837 4.03837 0 01-.12239-.98094 1.99593 1.99593 0 01.43547-1.42925 1.55746 1.55746 0 011.17071-.44921h9.52843q.13614.32728.28558.80309a3.29929 3.29929 0 01.14989.99377 1.953 1.953 0 01-.43547 1.40266 1.52346 1.52346 0 01-1.14366.44922zm0 5.41718a2.67792 2.67792 0 01-.31308-.78933 4.031 4.031 0 01-.12239-.98 1.99438 1.99438 0 01.43547-1.42924 1.554 1.554 0 011.17071-.44922h9.52843q.13614.32728.28558.80309a3.29492 3.29492 0 01.14989.99378 1.95054 1.95054 0 01-.43547 1.40174 1.52006 1.52006 0 01-1.14366.44921zM207.021 81.47185a3.839 3.839 0 00-1.2931.21727 3.00651 3.00651 0 00-1.06208.63991 3.13172 3.13172 0 00-.7215 1.04786 3.667 3.667 0 00-.27182 1.4705 3.18178 3.18178 0 00.96628 2.53212 3.45746 3.45746 0 002.35472.84342 4.67951 4.67951 0 001.416-.19068 8.5767 8.5767 0 001.06161-.408 2.82011 2.82011 0 01.81684.8306 2.03694 2.03694 0 01.27228 1.07537 1.904 1.904 0 01-1.06207 1.7281 5.90357 5.90357 0 01-2.94008.61241 9.05978 9.05978 0 01-3.10372-.50331A7.00932 7.00932 0 01201.0725 89.952a6.25648 6.25648 0 01-1.53834-2.192 7.14859 7.14859 0 01-.54456-2.831 7.833 7.833 0 01.58535-3.14451 6.07981 6.07981 0 011.59289-2.21858 6.74 6.74 0 012.32767-1.30732 8.86762 8.86762 0 012.79019-.43546 5.4369 5.4369 0 013.02213.70774 2.121 2.121 0 011.06162 1.82437 1.98183 1.98183 0 01-.24524.96628 3.37254 3.37254 0 01-.5716.7765 8.83451 8.83451 0 00-1.11617-.42263A4.73765 4.73765 0 00207.021 81.47185zM218.019 74.50166a8.78288 8.78288 0 012.74985.39512 6.41078 6.41078 0 012.04165 1.07537 4.53151 4.53151 0 011.27981 1.60618 4.61307 4.61307 0 01.43546 1.98756q0 2.85894-3.2394 5.44469l-3.56669 2.85848h6.53381a4.51435 4.51435 0 01.31308.76275 3.2636 3.2636 0 01.14989 1.00661 1.89591 1.89591 0 01-.43547 1.40266 1.5744 1.5744 0 01-1.14367.42171h-9.44684a2.899 2.899 0 01-.93923-1.04786 3.17343 3.17343 0 01-.34012-1.51084 3.00692 3.00692 0 01.38092-1.56584 3.88473 3.88473 0 01.84388-1.02128l3.75692-3.21236q.70821-.59818 1.17072-1.07537a9.12037 9.12037 0 00.749-.85717 2.93088 2.93088 0 00.408-.70775 1.77462 1.77462 0 00.12284-.62615 1.36187 1.36187 0 00-.66694-1.19822 2.957 2.957 0 00-1.64744-.43546 5.24946 5.24946 0 00-1.9463.34012 7.76979 7.76979 0 00-1.42924.72149 2.71078 2.71078 0 01-.76229-.81684 2.14557 2.14557 0 01-.29933-1.14321 2.24592 2.24592 0 011.3339-2.10948A7.82885 7.82885 0 01218.019 74.50166zM120.31251 114.17849a3.83909 3.83909 0 00-1.29311.21727 3.00646 3.00646 0 00-1.06207.63991 3.13168 3.13168 0 00-.7215 1.04786 3.667 3.667 0 00-.27182 1.4705 3.18177 3.18177 0 00.96627 2.53212 3.45746 3.45746 0 002.35472.84342 4.67947 4.67947 0 001.416-.19068 8.57627 8.57627 0 001.06162-.408 2.82011 2.82011 0 01.81684.8306 2.037 2.037 0 01.27228 1.07537 1.90406 1.90406 0 01-1.06208 1.72811 5.90365 5.90365 0 01-2.94007.6124 9.05974 9.05974 0 01-3.10372-.50331 7.00946 7.00946 0 01-2.38177-1.41549 6.25661 6.25661 0 01-1.53834-2.192 7.14877 7.14877 0 01-.54456-2.831 7.833 7.833 0 01.58536-3.14451 6.0797 6.0797 0 011.59289-2.21858 6.73977 6.73977 0 012.32767-1.30731 8.86734 8.86734 0 012.79019-.43547 5.43681 5.43681 0 013.02213.70775 2.12091 2.12091 0 011.06161 1.82437 1.98181 1.98181 0 01-.24523.96627 3.37257 3.37257 0 01-.57161.7765 8.83372 8.83372 0 00-1.11616-.42263A4.73765 4.73765 0 00120.31251 114.17849zM131.311 107.2083a8.783 8.783 0 012.74985.39512 6.41083 6.41083 0 012.04164 1.07537 4.53129 4.53129 0 011.27981 1.60618 4.61293 4.61293 0 01.43547 1.98756q0 2.85894-3.23941 5.44469l-3.56668 2.85848h6.53381a4.51523 4.51523 0 01.31307.76275 3.26362 3.26362 0 01.14989 1.00662 1.8959 1.8959 0 01-.43546 1.40265 1.57442 1.57442 0 01-1.14367.42171h-9.44684a2.89887 2.89887 0 01-.93923-1.04786 3.17343 3.17343 0 01-.34012-1.51084 3.007 3.007 0 01.38091-1.56584 3.885 3.885 0 01.84389-1.02128l3.75692-3.21236q.70819-.59819 1.17071-1.07537a9.12037 9.12037 0 00.749-.85717 2.93054 2.93054 0 00.408-.70775 1.77464 1.77464 0 00.12285-.62615 1.36186 1.36186 0 00-.66695-1.19822 2.957 2.957 0 00-1.64743-.43546 5.24963 5.24963 0 00-1.9463.34012 7.76958 7.76958 0 00-1.42925.72149 2.71091 2.71091 0 01-.76229-.81684 2.14566 2.14566 0 01-.29932-1.14321 2.24591 2.24591 0 011.3339-2.10948A7.82879 7.82879 0 01131.311 107.2083zM148.10847 122.808a2.69664 2.69664 0 01-.80308.17694 9.69335 9.69335 0 01-1.12992.06784 3.15265 3.15265 0 01-1.68823-.36671 1.749 1.749 0 01-.57161-1.56584v-2.99508h-4.11079a2.68046 2.68046 0 01-.31307-.78934 4.02493 4.02493 0 01-.12239-.98 1.996 1.996 0 01.43546-1.42925 1.55749 1.55749 0 011.17072-.44921h2.94007V109.9036a7.83041 7.83041 0 01.8306-.17694 6.56487 6.56487 0 011.10241-.09534 3.07256 3.07256 0 011.67448.38137 1.80158 1.80158 0 01.58535 1.60618v2.85849h4.0292q.13545.32728.28558.80309a3.30933 3.30933 0 01.14989.99377 1.9545 1.9545 0 01-.43547 1.40266 1.52353 1.52353 0 01-1.14367.4483h-2.88553zM160.25016 110.52975a11.16643 11.16643 0 012.68155.29978 6 6 0 012.06915.91219 4.1145 4.1145 0 011.32014 1.55117 4.97 4.97 0 01.463 2.2195v6.09834a1.69077 1.69077 0 01-.39467 1.157 3.97125 3.97125 0 01-.93923.77558 9.73222 9.73222 0 01-4.98218 1.06162 11.375 11.375 0 01-2.6-.27228 6.13386 6.13386 0 01-1.98756-.81684 3.73593 3.73593 0 01-1.27935-1.388 4.11177 4.11177 0 01-.44922-1.96005 3.68737 3.68737 0 011.11617-2.886 6.02166 6.02166 0 013.45759-1.2523l3.56623-.38138v-.19069a1.1672 1.1672 0 00-.694-1.12946 4.68078 4.68078 0 00-2.00131-.34012 9.281 9.281 0 00-2.0146.21728 10.80974 10.80974 0 00-1.76936.54456 1.886 1.886 0 01-.59911-.74809 2.37169 2.37169 0 01-.24477-1.04878 1.74743 1.74743 0 01.34012-1.12946 2.6348 2.6348 0 011.04832-.7215 8.16047 8.16047 0 011.86471-.43546A16.18689 16.18689 0 01160.25016 110.52975zm.21773 10.69961a6.13558 6.13558 0 001.02082-.09535 2.485 2.485 0 00.8306-.25853v-2.17824l-1.96051.16319a3.01771 3.01771 0 00-1.25231.32728.88022.88022 0 00-.49.81684 1.08373 1.08373 0 00.42217.88469A2.31242 2.31242 0 00160.46789 121.22936zM174.76032 107.2083a8.78286 8.78286 0 012.74984.39512 6.41078 6.41078 0 012.04165 1.07537 4.5314 4.5314 0 011.27981 1.60618 4.61307 4.61307 0 01.43546 1.98756q0 2.85894-3.2394 5.44469L174.461 120.5757h6.53381a4.51435 4.51435 0 01.31308.76275 3.26362 3.26362 0 01.14989 1.00662 1.89594 1.89594 0 01-.43546 1.40265 1.57443 1.57443 0 01-1.14367.42171h-9.44685a2.899 2.899 0 01-.93923-1.04786 3.17343 3.17343 0 01-.34012-1.51084 3.007 3.007 0 01.38092-1.56584 3.88456 3.88456 0 01.84389-1.02128l3.75691-3.21236q.70821-.59819 1.17072-1.07537a9.12037 9.12037 0 00.749-.85717 2.93054 2.93054 0 00.408-.70775 1.77464 1.77464 0 00.12285-.62615 1.36188 1.36188 0 00-.66695-1.19822 2.957 2.957 0 00-1.64744-.43546 5.24966 5.24966 0 00-1.9463.34012 7.76979 7.76979 0 00-1.42924.72149 2.71091 2.71091 0 01-.76229-.81684 2.14557 2.14557 0 01-.29933-1.14321 2.24592 2.24592 0 011.3339-2.10948A7.82886 7.82886 0 01174.76032 107.2083zM183.30873 115.24011a2.68868 2.68868 0 01-.31308-.78934 4.03837 4.03837 0 01-.12239-.98094 1.99593 1.99593 0 01.43547-1.42925 1.55746 1.55746 0 011.17071-.44921h9.52844q.13614.32729.28557.80309a3.29929 3.29929 0 01.14989.99377 1.953 1.953 0 01-.43546 1.40266 1.5235 1.5235 0 01-1.14367.44922zm0 5.41718a2.67808 2.67808 0 01-.31308-.78933 4.031 4.031 0 01-.12239-.98 1.99438 1.99438 0 01.43547-1.42924 1.554 1.554 0 011.17071-.44922h9.52844q.13614.32729.28557.80309a3.29492 3.29492 0 01.14989.99378 1.95058 1.95058 0 01-.43546 1.40174 1.5201 1.5201 0 01-1.14367.44921zM196.78477 106.44646a7.38541 7.38541 0 01.87139-.17693 7.80774 7.80774 0 011.2248-.09535 6.44269 6.44269 0 011.07537.08159 1.82869 1.82869 0 01.80309.32637 1.47717 1.47717 0 01.49.66741 3.10246 3.10246 0 01.16364 1.10287v2.6678a6.59628 6.59628 0 011.29311-.38137 7.73632 7.73632 0 011.34765-.1091 6.68932 6.68932 0 012.47756.463 6.14811 6.14811 0 012.06869 1.34765 6.26527 6.26527 0 011.416 2.192 9.17229 9.17229 0 01-.01375 6.11118 5.88653 5.88653 0 01-1.48379 2.192 6.29163 6.29163 0 01-2.32768 1.32014 9.72348 9.72348 0 01-3.03542.44922 9.61759 9.61759 0 01-3.04917-.42171 8.00184 8.00184 0 01-2.12369-1.04787 2.56242 2.56242 0 01-1.19776-2.17824zm6.37062 14.51062a2.3622 2.3622 0 001.9463-.8581 3.97421 3.97421 0 00.69446-2.54495 3.91819 3.91819 0 00-.70775-2.55962 2.36139 2.36139 0 00-1.906-.84342 3.5678 3.5678 0 00-.93923.10909 5.43833 5.43833 0 00-.85764.32637v5.93516a2.80341 2.80341 0 00.7215.31262A3.821 3.821 0 00203.15539 120.95708zM217.93783 107.2083a8.783 8.783 0 012.74985.39512 6.41083 6.41083 0 012.04164 1.07537 4.53129 4.53129 0 011.27981 1.60618 4.61293 4.61293 0 01.43547 1.98756q0 2.85894-3.23941 5.44469l-3.56668 2.85848h6.53381a4.51523 4.51523 0 01.31307.76275 3.26362 3.26362 0 01.14989 1.00662 1.8959 1.8959 0 01-.43546 1.40265 1.57442 1.57442 0 01-1.14367.42171h-9.44684a2.89887 2.89887 0 01-.93923-1.04786 3.17343 3.17343 0 01-.34012-1.51084 3.007 3.007 0 01.38091-1.56584 3.885 3.885 0 01.84389-1.02128l3.75692-3.21236q.70819-.59819 1.17071-1.07537a9.12037 9.12037 0 00.749-.85717 2.93054 2.93054 0 00.408-.70775 1.77464 1.77464 0 00.12285-.62615 1.36186 1.36186 0 00-.667-1.19822 2.957 2.957 0 00-1.64743-.43546 5.24963 5.24963 0 00-1.9463.34012 7.76914 7.76914 0 00-1.42924.72149 2.71082 2.71082 0 01-.7623-.81684 2.14566 2.14566 0 01-.29932-1.14321 2.24591 2.24591 0 011.3339-2.10948A7.82879 7.82879 0 01217.93783 107.2083zM112.90731 140.58051a7.385 7.385 0 01.87139-.17693 7.80774 7.80774 0 011.2248-.09535 6.44269 6.44269 0 011.07537.08159 1.82874 1.82874 0 01.80309.32637 1.47711 1.47711 0 01.49.66741 3.10246 3.10246 0 01.16364 1.10287v2.6678a6.597 6.597 0 011.29311-.38138 7.73734 7.73734 0 011.34765-.10909 6.68936 6.68936 0 012.47756.463 6.14821 6.14821 0 012.06869 1.34765 6.26518 6.26518 0 011.41595 2.192 9.17229 9.17229 0 01-.01375 6.11118 5.88653 5.88653 0 01-1.48379 2.192 6.29171 6.29171 0 01-2.32768 1.32014 9.72353 9.72353 0 01-3.03542.44922 9.61755 9.61755 0 01-3.04917-.42171 8.00207 8.00207 0 01-2.1237-1.04787 2.56243 2.56243 0 01-1.19775-2.17824zm6.37062 14.51062a2.36223 2.36223 0 001.9463-.8581 3.97421 3.97421 0 00.69445-2.54495 3.91819 3.91819 0 00-.70774-2.55962 2.36139 2.36139 0 00-1.906-.84342 3.5678 3.5678 0 00-.93923.10909 5.438 5.438 0 00-.85764.32637v5.93516a2.80341 2.80341 0 00.7215.31262A3.821 3.821 0 00119.27793 155.09113zM134.06037 141.34235a8.783 8.783 0 012.74985.39512 6.41083 6.41083 0 012.04164 1.07537 4.5314 4.5314 0 011.27981 1.60618 4.61293 4.61293 0 01.43547 1.98756q0 2.85894-3.23941 5.44469l-3.56669 2.85848h6.53382a4.51523 4.51523 0 01.31307.76275 3.2636 3.2636 0 01.14989 1.00661 1.89591 1.89591 0 01-.43546 1.40266 1.57442 1.57442 0 01-1.14367.42171h-9.44684a2.89887 2.89887 0 01-.93923-1.04786 3.17343 3.17343 0 01-.34012-1.51084 3.007 3.007 0 01.38091-1.56584 3.885 3.885 0 01.84389-1.02128l3.75692-3.21236q.70819-.59818 1.17071-1.07537a9.12037 9.12037 0 00.749-.85717 2.93054 2.93054 0 00.408-.70775 1.77464 1.77464 0 00.12285-.62615 1.36188 1.36188 0 00-.66695-1.19822 2.957 2.957 0 00-1.64743-.43546 5.24942 5.24942 0 00-1.9463.34012 7.769 7.769 0 00-1.42925.72149 2.71091 2.71091 0 01-.76229-.81684 2.14566 2.14566 0 01-.29932-1.14321 2.24591 2.24591 0 011.33389-2.10948A7.82886 7.82886 0 01134.06037 141.34235zM150.85786 156.94208a2.69664 2.69664 0 01-.80309.17694 9.69305 9.69305 0 01-1.12991.06784 3.15265 3.15265 0 01-1.68823-.36671 1.749 1.749 0 01-.57161-1.56584v-2.99508h-4.11079a2.68046 2.68046 0 01-.31307-.78934 4.02495 4.02495 0 01-.12239-.98 1.996 1.996 0 01.43546-1.42924 1.55749 1.55749 0 011.17072-.44921H146.665v-4.57376a7.83068 7.83068 0 01.83059-.17694 6.565 6.565 0 011.10242-.09534 3.07256 3.07256 0 011.67448.38137 1.80158 1.80158 0 01.58535 1.60618v2.85849h4.0292q.13545.32728.28558.80308a3.30944 3.30944 0 01.14989.99378 1.95451 1.95451 0 01-.43547 1.40266 1.52357 1.52357 0 01-1.14367.4483h-2.88553zM165.09574 148.31254a3.839 3.839 0 00-1.2931.21727 3.0066 3.0066 0 00-1.06208.63991 3.13187 3.13187 0 00-.7215 1.04786 3.667 3.667 0 00-.27182 1.4705 3.18178 3.18178 0 00.96628 2.53212 3.45746 3.45746 0 002.35472.84342 4.67947 4.67947 0 001.416-.19068 8.5767 8.5767 0 001.06161-.408 2.82 2.82 0 01.81685.8306 2.037 2.037 0 01.27228 1.07537 1.90406 1.90406 0 01-1.06208 1.7281 5.90357 5.90357 0 01-2.94008.61241 9.05978 9.05978 0 01-3.10372-.50331 7.00932 7.00932 0 01-2.38176-1.41549 6.25648 6.25648 0 01-1.53834-2.192 7.14859 7.14859 0 01-.54456-2.831 7.83278 7.83278 0 01.58536-3.14451 6.07968 6.07968 0 011.59288-2.21858 6.74 6.74 0 012.32768-1.30732 8.86756 8.86756 0 012.79018-.43546 5.43688 5.43688 0 013.02213.70774 2.12092 2.12092 0 011.06162 1.82437 1.98172 1.98172 0 01-.24524.96628 3.37254 3.37254 0 01-.5716.7765 8.83392 8.83392 0 00-1.11617-.42263A4.7376 4.7376 0 00165.09574 148.31254zM176.09421 141.34235a8.78288 8.78288 0 012.74985.39512 6.41078 6.41078 0 012.04165 1.07537 4.53151 4.53151 0 011.27981 1.60618 4.61307 4.61307 0 01.43546 1.98756q0 2.85894-3.2394 5.44469l-3.56669 2.85848h6.53381a4.51435 4.51435 0 01.31308.76275 3.2636 3.2636 0 01.14989 1.00661 1.89591 1.89591 0 01-.43547 1.40266 1.5744 1.5744 0 01-1.14367.42171h-9.44684a2.899 2.899 0 01-.93923-1.04786 3.17343 3.17343 0 01-.34012-1.51084 3.00692 3.00692 0 01.38092-1.56584 3.88473 3.88473 0 01.84388-1.02128l3.75692-3.21236q.70821-.59818 1.17072-1.07537a9.12037 9.12037 0 00.749-.85717 2.93088 2.93088 0 00.408-.70775 1.77462 1.77462 0 00.12284-.62615 1.36187 1.36187 0 00-.66694-1.19822 2.957 2.957 0 00-1.64744-.43546 5.24946 5.24946 0 00-1.9463.34012 7.76916 7.76916 0 00-1.42924.72149 2.71078 2.71078 0 01-.76229-.81684 2.14557 2.14557 0 01-.29933-1.14321 2.24592 2.24592 0 011.3339-2.10948A7.82885 7.82885 0 01176.09421 141.34235zM184.64262 149.37416a2.68869 2.68869 0 01-.31307-.78934 4.03837 4.03837 0 01-.12239-.98094 1.996 1.996 0 01.43546-1.42925 1.5575 1.5575 0 011.17072-.44921h9.52843q.13614.32728.28558.80309a3.29929 3.29929 0 01.14989.99377 1.953 1.953 0 01-.43547 1.40266 1.52347 1.52347 0 01-1.14367.44922zm0 5.41718a2.67821 2.67821 0 01-.31307-.78933 4.031 4.031 0 01-.12239-.98 1.99443 1.99443 0 01.43546-1.42924 1.554 1.554 0 011.17072-.44922h9.52843q.13614.32728.28558.80309a3.29492 3.29492 0 01.14989.99378 1.95054 1.95054 0 01-.43547 1.40174 1.52006 1.52006 0 01-1.14367.44921zM203.50927 144.6638a11.16635 11.16635 0 012.68154.29978 5.99987 5.99987 0 012.06915.91219 4.11444 4.11444 0 011.32015 1.55117 4.97 4.97 0 01.463 2.2195v6.09834a1.69078 1.69078 0 01-.39467 1.157 3.971 3.971 0 01-.93923.77559A9.73225 9.73225 0 01203.727 158.739a11.37517 11.37517 0 01-2.6-.27228 6.13381 6.13381 0 01-1.98755-.81684 3.73592 3.73592 0 01-1.27935-1.388 4.11168 4.11168 0 01-.44922-1.96 3.68737 3.68737 0 011.11617-2.886 6.02167 6.02167 0 013.45759-1.25231l3.56623-.38137v-.19069a1.1672 1.1672 0 00-.694-1.12946 4.68078 4.68078 0 00-2.00131-.34012 9.281 9.281 0 00-2.0146.21728 10.80913 10.80913 0 00-1.76936.54456 1.88594 1.88594 0 01-.59911-.74809 2.37156 2.37156 0 01-.24478-1.04878 1.74743 1.74743 0 01.34012-1.12946 2.63477 2.63477 0 011.04833-.7215 8.16022 8.16022 0 011.86471-.43546A16.18689 16.18689 0 01203.50927 144.6638zm.21773 10.69961a6.13568 6.13568 0 001.02082-.09535 2.485 2.485 0 00.83059-.25853v-2.17824l-1.96051.16319a3.0177 3.0177 0 00-1.2523.32728.88023.88023 0 00-.49.81684 1.08374 1.08374 0 00.42218.88469A2.31242 2.31242 0 00203.727 155.36341zM218.019 141.34235a8.78288 8.78288 0 012.74985.39512 6.41078 6.41078 0 012.04165 1.07537 4.53151 4.53151 0 011.27981 1.60618 4.61307 4.61307 0 01.43546 1.98756q0 2.85894-3.2394 5.44469l-3.56669 2.85848h6.53381a4.51435 4.51435 0 01.31308.76275 3.2636 3.2636 0 01.14989 1.00661 1.89591 1.89591 0 01-.43547 1.40266 1.5744 1.5744 0 01-1.14367.42171h-9.44684a2.899 2.899 0 01-.93923-1.04786 3.17343 3.17343 0 01-.34012-1.51084 3.00692 3.00692 0 01.38092-1.56584 3.88473 3.88473 0 01.84388-1.02128l3.75692-3.21236q.70821-.59818 1.17072-1.07537a9.12037 9.12037 0 00.749-.85717 2.93088 2.93088 0 00.408-.70775 1.77462 1.77462 0 00.12284-.62615 1.36187 1.36187 0 00-.66694-1.19822 2.957 2.957 0 00-1.64744-.43546 5.24946 5.24946 0 00-1.9463.34012 7.76916 7.76916 0 00-1.42924.72149 2.71078 2.71078 0 01-.76229-.81684 2.14557 2.14557 0 01-.29933-1.14321 2.24592 2.24592 0 011.3339-2.10948A7.82885 7.82885 0 01218.019 141.34235z"></path><circle cx="396.885" cy="47.911" r="26.317" fill="#ffba55"></circle><path fill="#d77f4a" d="M396.88477,74.6981A26.78711,26.78711,0,1,1,423.67188,47.911,26.81739,26.81739,0,0,1,396.88477,74.6981Zm0-52.63477A25.84766,25.84766,0,1,0,422.73242,47.911,25.87631,25.87631,0,0,0,396.88477,22.06333Z"></path><path fill="#d77f4a" d="M396.88477,50.25865a.47055.47055,0,0,1-.46973-.46973V32.81822a.46973.46973,0,1,1,.93945,0v16.9707A.47054.47054,0,0,1,396.88477,50.25865Z"></path><path fill="#d77f4a" d="M411.48633,53.76939a.47344.47344,0,0,1-.21-.04981L393.668,44.88951a.46949.46949,0,0,1,.41992-.83985l17.6084,8.83008a.46965.46965,0,0,1-.21.88965Z"></path><rect width="10.739" height="29.609" x="51.479" y="98.893" fill="#ffba55"></rect><path fill="#fff" d="M393.08013,120.042h37.21521a0,0,0,0,1,0,0v5.90847a0,0,0,0,1,0,0h-37.2152a2.54234,2.54234,0,0,1-2.54234-2.54234v-.82379A2.54234,2.54234,0,0,1,393.08013,120.042Z"></path><path fill="#f65b2b" d="M431.45917,126.10172a.53533.53533,0,0,1-.53533.53533H392.29856c-1.47475,0-2.67435-1.61977-2.67435-3.6111,0-1.99084,1.1996-3.61062,2.67435-3.61062h38.62528a.53533.53533,0,0,1,.53533.53533v.42138a.53533.53533,0,0,1-.53533.53533H392.29856c-.86543,0-1.56936.95049-1.56936,2.11858,0,1.16857.70393,2.11906,1.56936,2.11906h38.62528a.53533.53533,0,0,1,.53533.53533Z"></path><path fill="#fff" d="M387.27385,112.82029h37.21521a0,0,0,0,1,0,0v5.90847a0,0,0,0,1,0,0h-37.2152a2.54234,2.54234,0,0,1-2.54234-2.54234v-.82379a2.54234,2.54234,0,0,1,2.54234-2.54234Z"></path><path fill="#ffba55" d="M425.65289,118.88a.53534.53534,0,0,1-.53533.53533H386.49228c-1.47476,0-2.67435-1.61977-2.67435-3.6111,0-1.99084,1.19959-3.61062,2.67435-3.61062h38.62528a.53534.53534,0,0,1,.53533.53533v.42138a.53534.53534,0,0,1-.53533.53533H386.49228c-.86543,0-1.56936.95049-1.56936,2.11858,0,1.16857.70393,2.11906,1.56936,2.11906h38.62528a.53534.53534,0,0,1,.53533.53533Z"></path><path fill="#fff" d="M399.15907,105.59857h37.21521a0,0,0,0,1,0,0V111.507a0,0,0,0,1,0,0h-37.2152a2.54234,2.54234,0,0,1-2.54234-2.54234v-.82379A2.54234,2.54234,0,0,1,399.15907,105.59857Z"></path><path fill="#f65b2b" d="M437.53811 111.65828a.53533.53533 0 01-.53533.53533H398.37751c-1.47476 0-2.67435-1.61977-2.67435-3.6111 0-1.99084 1.19959-3.61062 2.67435-3.61062h38.62527a.53533.53533 0 01.53533.53533v.42138a.53533.53533 0 01-.53533.53533H398.37751c-.86544 0-1.56936.95049-1.56936 2.11858 0 1.16857.70392 2.11906 1.56936 2.11906h38.62527a.53533.53533 0 01.53533.53533zM464.889 311.54126l0 39.7925h-6.25685l0-39.79251a.65035.65035 0 01.65035-.65034h4.95616A.65034.65034 0 01464.889 311.54126z"></path><rect width="6.257" height=".756" x="458.632" y="347.873" fill="#fff"></rect><rect width="6.257" height=".756" x="458.632" y="344.85" fill="#fff"></rect><rect width="6.257" height=".756" x="458.632" y="317.646" fill="#fff"></rect><rect width="6.257" height=".756" x="458.632" y="314.624" fill="#fff"></rect><path fill="#ffba55" d="M443.95368,311.54126l0,39.7925h6.25686l0-39.79251a.65035.65035,0,0,0-.65035-.65034H444.604A.65035.65035,0,0,0,443.95368,311.54126Z"></path><rect width="6.257" height=".756" x="443.954" y="347.873" fill="#fff"></rect><rect width="6.257" height=".756" x="443.954" y="344.85" fill="#fff"></rect><rect width="6.257" height=".756" x="443.954" y="317.646" fill="#fff"></rect><rect width="6.257" height=".756" x="443.954" y="314.624" fill="#fff"></rect><path fill="#f65b2b" d="M443.96125,351.33376V313.35484a.65033.65033,0,0,0-.65034-.65034h-7.13246a.65034.65034,0,0,0-.65035.65034v37.97892Z"></path><rect width="8.433" height=".756" x="435.528" y="346.581" fill="#fff"></rect><rect width="18.045" height="5.441" x="430.722" y="321.183" fill="#fff" transform="rotate(90 439.745 323.903)"></rect><path fill="#7ca1b1" d="M435.75707,327.80255H473.736a0,0,0,0,1,0,0v8.43315a0,0,0,0,1,0,0H435.75707a.65034.65034,0,0,1-.65034-.65034V328.4529A.65034.65034,0,0,1,435.75707,327.80255Z" transform="rotate(90 454.421 332.02)"></path><rect width="8.433" height=".756" x="450.205" y="346.581" fill="#fff"></rect><rect width="18.045" height="5.441" x="445.399" y="321.183" fill="#fff" transform="rotate(90 454.421 323.903)"></rect><path fill="#fff" d="M341.20531,344.46571h37.2152a0,0,0,0,1,0,0v5.90847a0,0,0,0,1,0,0H341.20531a2.54234,2.54234,0,0,1-2.54234-2.54234v-.82379A2.54234,2.54234,0,0,1,341.20531,344.46571Z" transform="rotate(180 358.542 347.42)"></path><path fill="#f65b2b" d="M337.49913,350.52542a.53534.53534,0,0,0,.53534.53534h38.62527c1.47476,0,2.67435-1.61978,2.67435-3.61111,0-1.99084-1.19959-3.61061-2.67435-3.61061H338.03447a.53533.53533,0,0,0-.53534.53533v.42137a.53533.53533,0,0,0,.53534.53533h38.62527c.86543,0,1.56936.9505,1.56936,2.11858,0,1.16857-.70393,2.11907-1.56936,2.11907H338.03447a.53533.53533,0,0,0-.53534.53533Z"></path><path fill="#fff" d="M347.01159,337.244h37.2152a0,0,0,0,1,0,0v5.90847a0,0,0,0,1,0,0H347.01159a2.54234,2.54234,0,0,1-2.54234-2.54234v-.82379A2.54234,2.54234,0,0,1,347.01159,337.244Z" transform="rotate(180 364.348 340.198)"></path><path fill="#ffba55" d="M343.30542,343.3037a.53533.53533,0,0,0,.53533.53534H382.466c1.47476,0,2.67435-1.61978,2.67435-3.61111,0-1.99084-1.19959-3.61061-2.67435-3.61061H343.84075a.53532.53532,0,0,0-.53533.53533v.42137a.53533.53533,0,0,0,.53533.53534H382.466c.86543,0,1.56936.95049,1.56936,2.11857,0,1.16857-.70393,2.11907-1.56936,2.11907H343.84075a.53532.53532,0,0,0-.53533.53533Z"></path><path fill="#fff" d="M347.01159,330.02227h37.2152a0,0,0,0,1,0,0v5.90847a0,0,0,0,1,0,0H347.01159a2.54234,2.54234,0,0,1-2.54234-2.54234v-.82379A2.54234,2.54234,0,0,1,347.01159,330.02227Z" transform="rotate(180 364.348 332.977)"></path><path fill="#f65b2b" d="M343.30542,336.082a.53533.53533,0,0,0,.53533.53534H382.466c1.47476,0,2.67435-1.61978,2.67435-3.61111,0-1.99084-1.19959-3.61061-2.67435-3.61061H343.84075a.53532.53532,0,0,0-.53533.53533v.42137a.53533.53533,0,0,0,.53533.53534H382.466c.86543,0,1.56936.95049,1.56936,2.11857,0,1.16857-.70393,2.11907-1.56936,2.11907H343.84075a.53532.53532,0,0,0-.53533.53533Z"></path><path fill="#7ca1b1" d="M359.71014,305.80852h39.7925a0,0,0,0,1,0,0v6.25685a0,0,0,0,1,0,0h-39.7925a.65034.65034,0,0,1-.65034-.65034v-4.95617a.65034.65034,0,0,1,.65034-.65034Z" transform="rotate(97.76 379.281 308.937)"></path><rect width=".755" height="6.257" x="381.218" y="288.827" fill="#fff" transform="rotate(-82.242 381.595 291.955)"></rect><rect width=".755" height="6.257" x="380.81" y="291.822" fill="#fff" transform="rotate(-82.242 381.187 294.95)"></rect><rect width=".755" height="6.258" x="377.137" y="318.776" fill="#fff" transform="rotate(-82.233 377.514 321.905)"></rect><rect width=".755" height="6.257" x="376.728" y="321.771" fill="#fff" transform="rotate(-82.242 377.106 324.9)"></rect><path fill="#f65b2b" d="M365.02952,289.60309l0,39.79251h-6.25686l0-39.7925a.65035.65035,0,0,1,.65035-.65035h4.95616A.65035.65035,0,0,1,365.02952,289.60309Z"></path><rect width="6.257" height=".756" x="358.772" y="325.934" fill="#fff"></rect><rect width="6.257" height=".756" x="358.772" y="322.912" fill="#fff"></rect><rect width="6.257" height=".756" x="358.772" y="295.708" fill="#fff"></rect><rect width="6.257" height=".756" x="358.772" y="292.685" fill="#fff"></rect><path fill="#ffba55" d="M365.02194,329.3956V291.41667a.65035.65035,0,0,1,.65035-.65034h7.13246a.65034.65034,0,0,1,.65034.65034V329.3956Z"></path><rect width="8.434" height=".756" x="365.021" y="324.642" fill="#fff"></rect><rect width="18.045" height="5.441" x="360.216" y="299.245" fill="#fff" transform="rotate(90 369.239 301.965)"></rect><path fill="#ffba55" d="M344.09415,289.60309l0,39.79251H350.351l0-39.7925a.65035.65035,0,0,0-.65035-.65035H344.7445A.65035.65035,0,0,0,344.09415,289.60309Z"></path><rect width="6.257" height=".756" x="344.094" y="325.934" fill="#fff"></rect><rect width="6.257" height=".756" x="344.094" y="322.912" fill="#fff"></rect><rect width="6.257" height=".756" x="344.094" y="295.708" fill="#fff"></rect><rect width="6.257" height=".756" x="344.094" y="292.685" fill="#fff"></rect><path fill="#7ca1b1" d="M335.89755,305.86439h37.97892a0,0,0,0,1,0,0v8.43315a0,0,0,0,1,0,0H335.89755a.65034.65034,0,0,1-.65034-.65034v-7.13246A.65034.65034,0,0,1,335.89755,305.86439Z" transform="rotate(90 354.562 310.081)"></path><rect width="8.433" height=".756" x="350.346" y="324.642" fill="#fff"></rect><rect width="18.045" height="5.441" x="345.539" y="299.245" fill="#fff" transform="rotate(90 354.562 301.965)"></rect><path fill="#935b50" d="M24.22833 336.18312c0 .097 1.0101-.1405.99827-.03164 0 0-9.93944 16.29577-11.03033 16.29577a2.74841 2.74841 0 01-.31473-.02426 2.22457 2.22457 0 01-1.89013-2.508l7.75385-13.76347zM74.927 336.18312c0 .097-1.01009-.1405-.99826-.03164 0 0 9.93944 16.29577 11.03033 16.29577a2.74876 2.74876 0 00.31473-.02426 2.22458 2.22458 0 001.89013-2.508l-7.75386-13.76347z"></path><path fill="#d6694b" d="M90.44851,299.55483H8.38723V264.75018a2.42315,2.42315,0,0,1,2.42315-2.42315h77.215a2.42315,2.42315,0,0,1,2.42315,2.42315Z"></path><path fill="#d6694b" d="M19.7455,336.7815H10.81618A2.42316,2.42316,0,0,1,8.393,334.35834V299.54975H90.4531v34.80859A2.42316,2.42316,0,0,1,88.03,336.7815H81.87514"></path><rect width="74.923" height="29.559" x="11.956" y="266.161" fill="#e19974" rx="2.423"></rect><ellipse cx="49.418" cy="280.941" fill="#935b50" rx="4.126" ry="4.085"></ellipse><path fill="#ffba55" d="M52.20563,283.13762s18.0676,16.77542,23.63451,16.158c0,0-25.26953,16.21744-30.16228,30.86434L27.13879,309.756S44.43609,295.16945,52.20563,283.13762Z"></path><path fill="#f65b2b" d="M45.34256,281.7662s18.06759,16.77542,23.6345,16.158c0,0-25.26952,16.21744-30.16227,30.86434l-18.53907-20.404S37.573,293.798,45.34256,281.7662Z"></path><path fill="#fff" d="M45.83256,285.85019s18.0676,16.77542,23.6345,16.158c0,0-25.26952,16.21744-30.16227,30.86434l-18.53907-20.404S38.063,297.882,45.83256,285.85019Z"></path><rect width="74.923" height="29.559" x="11.956" y="303.389" fill="#e19974" rx="2.423"></rect><ellipse cx="49.418" cy="318.169" fill="#935b50" rx="4.126" ry="4.085"></ellipse><rect width="1.511" height="50.685" x="46.725" y="202.098" fill="#935b50" transform="rotate(-23.07 47.48 227.44)"></rect><circle cx="49.659" cy="227.297" r="20.415" fill="#c0d6f2"></circle><path fill="#a6b862" d="M66.45093 215.69217a20.40011 20.40011 0 013.1523 15.959c-.0129.00737-.02507.01672-.03817.02372a2.37468 2.37468 0 01-2.34885 0 6.13893 6.13893 0 01-.729-1.61988c-.2938-.76818-.35557-1.01877-.648-1.2149-.37217-.24973-.68477-.12059-.89092-.405-.1852-.2555-.00732-.46239-.081-.891a2.4468 2.4468 0 00-1.05295-1.37686c-.69595-.56043-1.05453-.50148-1.179-.88324-.07806-.23952.00947-.42723.369-1.22264a12.5 12.5 0 00.729-1.70089 3.56989 3.56989 0 00-.40493-2.02488 31.54209 31.54209 0 01-.729-3.32078c-.82006-3.11205-2.24332-4.3098-1.94387-4.61669C61.02463 212.02 63.85026 213.15868 66.45093 215.69217zM32.1707 216.76207c1.41053-1.45159 2.7566-2.25671 3.13362-2.0151.16417.10523.05667.3525.32391.97193.25582.5927.87888 1.582 1.61995 1.61989.332.017.48544-.16731 1.53888-1.05294 1.56887-1.3189 1.83839-1.42277 2.10588-1.37692.68446.1174 1.229 1.19339.97193 1.61995-.25225.41844-1.162.02249-1.45793.48593a1.18042 1.18042 0 00.486 1.37692 1.88634 1.88634 0 001.70089-.081 3.22719 3.22719 0 001.7009-1.29591c.433-.71439.3016-1.27458.648-1.37692.31378-.09268.75779.26786.97193.648.36971.65637-.0799 1.13364.243 1.61995.41587.62631 1.46168.28642 1.61989.7289.14671.41015-.61311 1.08994-1.2149 1.45793-.74519.45557-.99855.28046-1.94386.64795-1.41405.54967-1.31915 1.12492-2.59182 1.53888-1.10549.35956-1.47385.02212-1.94393.486-.386.381-.44635.98294-.56694 2.18683-.09582.95644.01487 1.185.081 1.29591a1.53889 1.53889 0 001.61988.648c.32294-.08568.53929-.30006.97194-.7289.496-.49165.49644-.67942.80991-.81.48237-.2008.71089.14807 1.134 0 .5627-.197.78729-1.03438 1.05294-2.02487.26811-.99978.21-1.41853.56694-1.61989.29184-.16466.47291.035 1.13395 0a5.08773 5.08773 0 001.45787-.405 12.74671 12.74671 0 011.78191-.48593 5.32958 5.32958 0 012.59187.324 5.73387 5.73387 0 012.75378 1.61988 4.114 4.114 0 011.215 3.07782 3.75 3.75 0 01-1.215 2.34878c-.93788.81938-1.56629.43836-2.42986 1.215a3.89694 3.89694 0 00-1.13389 2.59182c-.023.42072.0158 1.00377 1.29591 3.64476.99584 2.05456 1.25645 2.28769 1.37692 3.15882.13473.97414.085 2.6799-.81 3.15876-.49558.26516-.73763-.12022-2.67282-.324a11.63727 11.63727 0 00-2.18683-.08094c-1.09812.07511-1.23113.26755-1.86292.16195a3.93954 3.93954 0 01-1.86285-.97193c-.80229-.65465-.72552-.95017-1.53894-1.61988a7.80175 7.80175 0 00-1.61982-.97193c-1.18349-.59946-1.49954-.5718-2.51087-1.13395-.88238-.49043-1.56334-.87931-1.53888-1.37692a1.093 1.093 0 01.72891-.80991c.60781-.23584.94058.22 1.45792 0a1.46751 1.46751 0 00.729-1.45793c-.04512-.46141-.328-1.04987-.648-1.05294-.40523-.00388-.38384.93634-1.13395 1.37692a2.15648 2.15648 0 01-2.10588-.162c-.55115-.33984-1.19455-1.06745-1.05288-1.7009.10806-.48335.58846-.53351.729-1.13395.0925-.39552.017-.94206-.243-1.05294-.48877-.20849-1.51294 1.17261-2.02488 1.86292a5.62367 5.62367 0 00-1.37691 2.5108c-.13916.9849.21291 1.64091-.243 2.10588a1.24546 1.24546 0 01-.97193.324 1.31456 1.31456 0 01-.48489-.151 20.426 20.426 0 01.83407-19.54054z"></path><path fill="#935b50" d="M48.71289,253.69419A26.76155,26.76155,0,0,1,38.34766,202.244a1.38454,1.38454,0,0,1,1.06836,2.55469,23.99266,23.99266,0,0,0,18.51953,44.26757,1.38454,1.38454,0,0,1,1.06836,2.55469A26.608,26.608,0,0,1,48.71289,253.69419Z"></path><path fill="#935b50" d="M30.79716 259.02858H46.88943v-6.20935a1.76223 1.76223 0 011.7623-1.7623c.97335 0 4.27987.78895 4.27987 1.7623v6.20935H66.50631a1.7623 1.7623 0 010 3.52459H30.79716a1.7623 1.7623 0 110-3.52459zM470.38477 352.67759H1a1 1 0 010-2H470.38477a1 1 0 010 2z"></path><path fill="#fff" d="M176.36523 42.72056a2.62 2.62 0 01-.9121.47656 4.27624 4.27624 0 01-1.293.17676 4.559 4.559 0 01-1.62012-.24512A1.301 1.301 0 01171.71 42.285q-.76318-2.395-1.25293-3.8789-.48925-1.48389-.76172-2.60059h-.13672q-.08057 1.60693-.12207 2.92676-.041 1.32129-.05468 2.57324-.01319 1.25244-.05469 2.53125-.03955 1.28028-.12207 2.83106a4.814 4.814 0 01-.92578.23144 6.942 6.942 0 01-1.14356.0957 3.78463 3.78463 0 01-1.86426-.38086 1.45832 1.45832 0 01-.667-1.38867l.78906-13.88476a2.61582 2.61582 0 01.95313-.76172 4.30714 4.30714 0 012.06934-.4082 4.72067 4.72067 0 012.25878.44921 2.65287 2.65287 0 011.19825 1.45606q.24462.65332.53125 1.49707.28564.84522.57129 1.74219.28564.89942.55859 1.7832.271.88623.48926 1.59277h.13672q.65331-2.28662 1.30664-4.42382t1.19726-3.58008a4.39139 4.39139 0 011.04883-.36719 6.28671 6.28671 0 011.42871-.14941 5.17715 5.17715 0 012.17871.39453 1.56532 1.56532 0 01.97949 1.12988q.10841.54492.23145 1.67383.123 1.13085.25879 2.5459.13623 1.415.27246 2.99414t.25879 3.03613q.12158 1.456.2041 2.668.08057 1.21143.1084 1.86426a3.57235 3.57235 0 01-.96582.3955 5.67323 5.67323 0 01-1.29395.12207 3.878 3.878 0 01-1.74218-.35351 1.49726 1.49726 0 01-.76172-1.38867q-.16407-2.96778-.2041-5.33594-.041-2.36865-.12305-3.97461h-.13574q-.27246 1.06055-.79 2.668Q177.1001 40.21568 176.36523 42.72056zM190.30273 30.76939a5.75105 5.75105 0 011.40235-.51758 7.47652 7.47652 0 011.8916-.24512 6.801 6.801 0 012.41016.39551 2.09828 2.09828 0 011.34765 1.23828q.48925 1.41651 1.06153 3.29395.57129 1.87939 1.14355 3.87988.57129 2.001 1.11621 3.94727.54346 1.94677.95215 3.44433a2.24671 2.24671 0 01-.97949.61231 4.65763 4.65763 0 01-1.55176.23144 4.771 4.771 0 01-1.10254-.10937 1.9509 1.9509 0 01-.73535-.32618 1.61391 1.61391 0 01-.46289-.57226 4.83655 4.83655 0 01-.3125-.81641l-.49024-1.8789h-4.92773q-.21827.81738-.43555 1.68847-.21825.87159-.43554 1.6875a6.951 6.951 0 01-.80371.23145 4.7 4.7 0 01-1.02051.0957 3.56238 3.56238 0 01-2.05567-.47656 1.53322 1.53322 0 01-.667-1.32031 2.74767 2.74767 0 01.10938-.7627c.07226-.2539.15332-.55273.24511-.89844q.189-.73387.53028-1.82421.33984-1.08839.749-2.3545.40869-1.26562.87109-2.59961.4629-1.33446.8711-2.51855.40869-1.18359.749-2.10938Q190.1123 31.25963 190.30273 30.76939zm3.26758 3.51172q-.38232 1.144-.8584 2.5459t-.85742 2.84472h3.376q-.38086-1.4707-.77539-2.87207-.39551-1.40185-.72168-2.51855zM202.14551 34.09068a3.54118 3.54118 0 01-.35352-.81641 3.61049 3.61049 0 01-.16308-1.08887 2.05994 2.05994 0 01.47656-1.52539 1.70589 1.70589 0 011.23828-.46289h11.87012a3.52811 3.52811 0 01.35351.81739 3.57993 3.57993 0 01.16309 1.08886 2.05992 2.05992 0 01-.47559 1.52442 1.70576 1.70576 0 01-1.23925.46289h-3.02149V46.66783a7.58278 7.58278 0 01-.93945.16406 9.94633 9.94633 0 01-1.26563.081 5.67156 5.67156 0 01-1.10254-.09472 1.94726 1.94726 0 01-.80371-.34082 1.47006 1.47006 0 01-.49023-.68067 3.32644 3.32644 0 01-.16309-1.14258V34.09068zM232.80078 46.66783a7.58278 7.58278 0 01-.93945.16406 9.94621 9.94621 0 01-1.26563.081 5.67156 5.67156 0 01-1.10254-.09472 1.94726 1.94726 0 01-.80371-.34082 1.47006 1.47006 0 01-.49023-.68067 3.32644 3.32644 0 01-.16309-1.14258V40.40708h-5.22656v6.26075a7.58278 7.58278 0 01-.93945.16406 9.94633 9.94633 0 01-1.26563.081 5.6645 5.6645 0 01-1.10254-.09472 1.94726 1.94726 0 01-.80371-.34082 1.47006 1.47006 0 01-.49023-.68067 3.32644 3.32644 0 01-.16309-1.14258v-14.375c.19922-.03613.51758-.08593.95313-.14941A8.68638 8.68638 0 01220.25 30.034a5.67217 5.67217 0 011.10254.0957 1.965 1.965 0 01.80371.33984 1.46668 1.46668 0 01.48926.68067 3.31031 3.31031 0 01.16406 1.14355v4.35547h5.22656V30.27915c.19922-.03613.51758-.08593.95313-.14941a8.68638 8.68638 0 011.25195-.0957 5.665 5.665 0 011.10254.0957 1.965 1.965 0 01.80371.33984 1.47519 1.47519 0 01.49024.68067 3.33656 3.33656 0 01.16308 1.14355zM241.02246 40.21568q-1.19824-.40723-2.17773-.83008a6.6788 6.6788 0 01-1.68848-1.02051 4.24452 4.24452 0 01-1.10254-1.42969 4.707 4.707 0 01-.39453-2.02832 4.457 4.457 0 011.7832-3.70214 7.95663 7.95663 0 014.9961-1.38868 13.6873 13.6873 0 012.17773.16309 6.53369 6.53369 0 011.72852.50391 3.02805 3.02805 0 011.12988.87109 1.97569 1.97569 0 01.4082 1.23926 2.17446 2.17446 0 01-.32617 1.21093 3.38269 3.38269 0 01-.79.85743 6.18877 6.18877 0 00-1.60644-.667 8.05716 8.05716 0 00-2.20508-.28515 3.64274 3.64274 0 00-1.79688.33984.99267.99267 0 00-.57129.85742.7923.7923 0 00.35352.667 3.64821 3.64821 0 001.0625.47656l1.44238.46289a10.44832 10.44832 0 013.9336 2.083 4.44932 4.44932 0 011.375 3.44336 4.5291 4.5291 0 01-1.82422 3.74316 8.56756 8.56756 0 01-5.36231 1.42969 12.52207 12.52207 0 01-2.32812-.2041 7.37464 7.37464 0 01-1.87891-.59864 3.4769 3.4769 0 01-1.252-.98047 2.14853 2.14853 0 01-.44922-1.34765 2.04218 2.04218 0 01.46289-1.34766 3.53432 3.53432 0 011.00781-.85742 7.37331 7.37331 0 001.86426 1.03418 6.48834 6.48834 0 002.40918.43555 3.23211 3.23211 0 001.87891-.40821 1.17724 1.17724 0 00.54394-.95214.93349.93349 0 00-.43554-.83106 5.63869 5.63869 0 00-1.22461-.55762z"></path><path fill="#f9977a" d="M262.78321,327.20978l-2.00254,8.32595s-10.9714,8.71635-25.02152,11.05822c0,0-4.29306,1.97131-4.29306,5.08339h42.324V335.53573l1.86647-8.326Z"></path><path fill="#d6694b" d="M273.7932,335.53254v16.14h-42.33c0-3.11,4.29993-5.08008,4.29993-5.08008,14.05-2.33984,25.02-11.05994,25.02-11.05994S267.52318,343.01265,273.7932,335.53254Z"></path><polygon fill="#8b9d36" points="276.349 167.454 257.383 327.21 276.349 327.21 294.434 243.95 306.523 327.21 325.784 327.21 325.784 167.454 276.349 167.454"></polygon><path fill="#f9977a" d="M295.92839,106.72678c-7.67049-4.44641.84025-14.15069.84025-14.15069l.15906-.50447a.64288.64288,0,0,0-.5958-.863c-1.73489.0684-5.2721-.18686-3.77825-3.62354a3.33892,3.33892,0,0,0-.68068-2.75139.94038.94038,0,0,1,.19579-1.36806,8.85074,8.85074,0,0,0,2.72244-2.49692.6283.6283,0,0,0-.51677-.96494l-3.34691.13124a.49622.49622,0,0,1-.47627-.62361l.10151-.4578a.54016.54016,0,0,0-.38576-.65407l-1.1248-.25143a1.30506,1.30506,0,0,1-.80808-1.86607l2.19-4.42844a3.82374,3.82374,0,0,0,.3005-2.51352c-.54982-2.48634-2.39391-1.9-.758-7.31082,0,0,6.05132-6.37872,17.30128,2.69612,0,0-.4821-.582,4.7641,4.90753,0,0,2.056,2.04914.53811,8.37428,0,0,2.10528,12.68021-.03142,16.7506C312.53869,94.7578,303.59887,111.1732,295.92839,106.72678Z"></path><path fill="#dd765e" d="M311.70284,79.96647s-3.04013,23.94706-15.38331,12.94329h0c.27209-.21414.44911-.33367.44911-.33367l.15906-.50447a.64287.64287,0,0,0-.59576-.863c-.11188.0044-.23175.0073-.35675.0082l-.0468-.23C308.60315,92.77449,311.70284,79.96647,311.70284,79.96647Z"></path><path d="M297.62562,70.05778a.45924.45924,0,0,0,.49285-.20634.523.523,0,0,0-.1143-.69813A17.08036,17.08036,0,0,0,290.8865,66.274a.50384.50384,0,0,0-.12626.9973,16.51987,16.51987,0,0,1,6.7048,2.71116A.44814.44814,0,0,0,297.62562,70.05778Z"></path><path fill="#350500" d="M295.12756,70.97965a8.75685,8.75685,0,0,1-1.85315-.32513l-.82861-.24316c-.28516-.0918-.57428-.166-.93237-.30988a2.11213,2.11213,0,0,1,2.02209-.41168A2.39607,2.39607,0,0,1,295.12756,70.97965Z"></path><ellipse cx="292.773" cy="71.154" fill="#050505" rx="1.104" ry=".592" transform="rotate(-77.963 292.773 71.154)"></ellipse><path fill="#dd765e" d="M311.88114,72.90932a5.84339,5.84339,0,0,0-2.06654-.709,2.14333,2.14333,0,0,0-1.00586.16258,4.04914,4.04914,0,0,0-.9505.60761,2.15783,2.15783,0,0,1,.7893-.95762,1.92587,1.92587,0,0,1,1.20326-.31367,2.65226,2.65226,0,0,1,1.1496.39006A2.84215,2.84215,0,0,1,311.88114,72.90932Z"></path><path fill="#dd765e" d="M311.0383,76.71045a3.16117,3.16117,0,0,1-.895-.9157,4.13506,4.13506,0,0,1-.54705-1.21292,5.19587,5.19587,0,0,1-.12382-.669,4.08331,4.08331,0,0,1,.00476-.68232,3.33029,3.33029,0,0,1,.36608-1.28139,11.06128,11.06128,0,0,0-.00023,1.28139,5.73308,5.73308,0,0,0,.204,1.2078A9.1256,9.1256,0,0,0,311.0383,76.71045Z"></path><path d="M315.19882,84.42537c3.02151-.41014,4.43989-5.45553,5.81883-10.36062a26.22612,26.22612,0,0,0,1.14881-11.19c-.37367-2.82943-.73555-5.56953-2.7877-8.15474-2.85121-3.59182-7.06933-4.49623-10.43362-5.21758-3.7658-.80743-6.77595-1.45284-9.79572-.03361-3.20076,1.50429-3.97478,1.127-6.11715,3.59846-.73849.85193-3.38164.892-4.91327,1.7502-.30538.1711-2.07671,1.16356-2.01607,2.17726.02615.4371.48248,4.0785,6.55989,5.66931,3.50821.91831,4.68994.55455,6.30688,1.5536,3.56137,2.20045,5.82228,1.008,6.635,1.26147.97822.30505-.16819,1.62682-.97473,3.93919a26.80191,26.80191,0,0,0-1.23474,5.38229c-.40133,2.86984-.05155,3.5735-.74246,5.583a6.73344,6.73344,0,0,1-1.80764,3.18666c-1.282,1.13124-2.83261,1.30989-4.95338,1.52635-3.6823.37581-3.8331-.78552-4.3483.05276-.51549.83873-.15231,3.93772.65978,4.76779,2.24334,2.293,5.23334,1.312,7.25038,1.26592,2.72388-.06226,8.80237-2.29037,9.15455-5.84862.18924-1.912-.63913-6.93662-1.17588-9.893a4.83739,4.83739,0,0,1,1.77841-4.79074,1.9554,1.9554,0,0,1,1.1617-.43727,2.72041,2.72041,0,0,1,2.24139,1.7065c.09854.25162.39678,1.14291-.82315,3.58818C310.50563,78.08393,312.56859,84.78239,315.19882,84.42537Z"></path><path d="M289.8333,80.36642a.87817.87817,0,0,0,.23912.02406l3.94133-.14241a3.5306,3.5306,0,0,0,2.45592-1.14344,1.05645,1.05645,0,0,0,.00893-1.42126.89509.89509,0,0,0-1.32676.00648,1.69669,1.69669,0,0,1-1.18018.54954l-3.94133.1424A.99105.99105,0,0,0,289.1135,79.42.97706.97706,0,0,0,289.8333,80.36642Z"></path><path fill="#f9977a" d="M246.82911,94.79526s1.5007-3.71522-1.51917-12.02061-6.28169-14.51962-5.5455-8.33341l.63907,4.70481s-4.99085-5.05735-7.70021-8.33059a5.26166,5.26166,0,0,0-6.05367-1.59729c-1.9451.82492-2.59936,2.38765-.2162,6.75244,3.56435,6.52813,5.63323,9.87513,6.985,11.22943.46832.46918,5.94389,5.13474,5.94389,5.13474Z"></path><path fill="#dd765e" d="M243.17181 82.44029a4.79454 4.79454 0 01-1.72869-1.362A5.12537 5.12537 0 01240.4035 79.146a3.92994 3.92994 0 011.80878 1.29419A4.22732 4.22732 0 01243.17181 82.44029zM235.32648 77.57237a14.1704 14.1704 0 01-1.98236-1.806 21.49255 21.49255 0 01-1.69336-2.06128 17.986 17.986 0 01-1.40265-2.28107 9.30105 9.30105 0 01-.92041-2.53369c1.07727 1.43976 2.106 2.81091 3.13458 4.23145A40.61825 40.61825 0 01235.32648 77.57237zM232.99066 78.75993a14.68091 14.68091 0 01-2.24658-1.89038 20.03206 20.03206 0 01-1.91132-2.22528 14.3817 14.3817 0 01-1.51294-2.53962 6.07025 6.07025 0 01-.67016-2.88647 12.82716 12.82716 0 001.35492 2.51227c.52337.785 1.06012 1.564 1.63434 2.32306C230.75421 75.59678 231.93286 77.09947 232.99066 78.75993zM230.55353 79.34294a10.6353 10.6353 0 01-1.92908-1.53345 16.38522 16.38522 0 01-1.6178-1.84424 11.10865 11.10865 0 01-2.10254-4.43225c.526.64838.99482 1.29059 1.47211 1.92969l1.43207 1.9057C228.75012 76.65159 229.70752 77.91746 230.55353 79.34294z"></path><path fill="#ffba55" d="M349.93029,147.90435c-.44128-4.26734-2.48963-11.99278-9.5771-24.6846C323.55331,93.152,312.54159,94.7585,312.54159,94.7585c-23.4335,26.53625-16.41967-1.71664-16.41967-1.71664-6.76834.51493-27.06316,24.45139-27.06316,24.45139L247.20717,86.80014l-8.32629,5.71422a110.61313,110.61313,0,0,0,23.56822,43.434,7.79,7.79,0,0,0,8.37539,2.18277l6.254-1.37355-.73587,30.69311,44.24325,1.04244L312.77451,182.546l10.92609,8.84123,24.5861-36.8612A10.05163,10.05163,0,0,0,349.93029,147.90435Zm-25.97222,13.09628v-22.2809c2.63632,4.32871,5.30976,8.314,6.254,8.43647Z"></path><path fill="#5e7c24" d="M315.16071 252.35923c1.48791 1.05286 2.99993 2.05017 4.54846 2.94324a18.78289 18.78289 0 002.37817 1.17322 6.741 6.741 0 002.44006.58789l.95331-.00525-.53192.77283a11.73152 11.73152 0 01-1.90625 2.13476 10.04417 10.04417 0 01-2.386 1.55188 7.26006 7.26006 0 01-2.7569.6698 7.11012 7.11012 0 01-2.73895-.46167 8.23117 8.23117 0 002.68713-.02722 7.70809 7.70809 0 002.45935-.88013 10.76888 10.76888 0 002.0993-1.55578 11.56151 11.56151 0 001.69965-1.9679l.42126.76746a7.34638 7.34638 0 01-2.80865-.71875 15.24 15.24 0 01-2.42078-1.38306 23.07854 23.07854 0 01-2.178-1.68445A24.73826 24.73826 0 01315.16071 252.35923zM280.77191 252.27561c1.48786 1.05274 2.99994 2.05017 4.5484 2.94324a18.77136 18.77136 0 002.37824 1.1731 6.73612 6.73612 0 002.44006.58789l.95325-.00513-.53186.77283a11.7296 11.7296 0 01-1.90631 2.13476 10.04357 10.04357 0 01-2.38593 1.55188 7.25987 7.25987 0 01-2.7569.66968 7.11011 7.11011 0 01-2.73895-.46155 8.23123 8.23123 0 002.68714-.02722 7.704 7.704 0 002.45928-.88025 10.76239 10.76239 0 002.09937-1.55566 11.55935 11.55935 0 001.69959-1.9679l.42132.76746a7.34407 7.34407 0 01-2.80865-.71887 15.22548 15.22548 0 01-2.42078-1.38294 23.09993 23.09993 0 01-2.178-1.68445A24.74167 24.74167 0 01280.77191 252.27561zM290.13873 188.78965l.3761 6.924.33594 6.92163c.23962 4.61267.40979 9.22754.71 13.83423.22772 4.61.51233 9.21777.89587 13.81372.07117 1.15222.20087 2.29651.30634 3.445.09576 1.15027.23572 2.29321.39093 3.43445l.20343 1.71789.29358 1.7013a30.39311 30.39311 0 00.7829 3.36779c-1.64643-4.3457-2.15107-9.01587-2.74268-13.59106-.544-4.59985-.82129-9.21936-1.12768-13.83435-.21723-4.62036-.40278-9.24072-.478-13.864C290.01355 198.03721 289.99817 193.41306 290.13873 188.78965z"></path><path fill="#935b50" d="M232.13688,349.57015h41.65321v2.10719l-42.90926.00012S229.68524,350.4,232.13688,349.57015Z"></path><path fill="#935b50" d="M245.01624,344.09251a3.10719,3.10719,0,0,1,2.016.20288,3.41126,3.41126,0,0,1,1.60028,1.43994,2.79386,2.79386,0,0,1,.22186,2.28406,2.58668,2.58668,0,0,1-1.38654,1.55078,14.54138,14.54138,0,0,0-.17431-1.74268,3.42451,3.42451,0,0,0-.41242-1.12768,9.49983,9.49983,0,0,0-.77539-1.14038C245.78607,345.13157,245.41766,344.68467,245.01624,344.09251Z"></path><path fill="#e6952a" d="M320.58594 168.493c1.41247-3.64246 2.9223-7.24133 4.45709-10.82886.74756-1.80273 1.56372-3.57446 2.345-5.36206l2.369-5.35119.39056.70044a1.39957 1.39957 0 01-.52893-.22815 2.387 2.387 0 01-.3407-.26856 6.26581 6.26581 0 01-.54284-.55731c-.33673-.37653-.63062-.76691-.92621-1.158-.58252-.78485-1.12354-1.588-1.653-2.39734-1.04284-1.6275-2.091-3.24786-3.0003-4.94775-1.85651-3.37659-3.69733-6.76-5.439-10.19013 2.10266 3.23139 4.10614 6.5094 6.094 9.79432 1.009 1.633 2.03314 3.25506 3.10168 4.84082.53546.79132 1.08191 1.57513 1.65741 2.32544.28967.37121.58124.745.89142 1.08026a5.30978 5.30978 0 00.469.46838 1.47494 1.47494 0 00.226.17487c.08539.06591.11231.05224.12037.07293l.39062.70075-2.44916 5.31469c-.82483 1.76783-1.61468 3.5514-2.4732 5.30408l-2.53327 5.27686C322.335 165.00218 321.49 166.76084 320.58594 168.493zM345.29865 143.77708a10.2602 10.2602 0 01.12963 2.84729 11.6705 11.6705 0 01-.5617 2.8175A8.17525 8.17525 0 01343.504 152.019a4.73926 4.73926 0 01-2.36841 1.64514 8.01308 8.01308 0 001.72632-2.0885 12.89446 12.89446 0 001.05694-2.45117C344.50665 147.41905 344.84882 145.6229 345.29865 143.77708zM263.0791 127.90556a19.09113 19.09113 0 003.36743 3.01434 8.18644 8.18644 0 001.94525.95117 11.293 11.293 0 002.23279.45771 4.57206 4.57206 0 01-2.40429.30352 5.60621 5.60621 0 01-2.31971-.8753 7.12181 7.12181 0 01-1.76941-1.691A6.06614 6.06614 0 01263.0791 127.90556zM269.06348 117.498a6.42493 6.42493 0 01-1.18543 3.15747 5.11116 5.11116 0 01-1.23987 1.2348 1.78725 1.78725 0 01-1.73773.29114 2.55168 2.55168 0 001.233-.88623q.4824-.57954.93085-1.21991A23.09141 23.09141 0 01269.06348 117.498z"></path><path fill="#e6952a" d="M330.2077 147.15952a3.58287 3.58287 0 01.47809-1.54809 4.575 4.575 0 011.04468-1.27252 3.70866 3.70866 0 011.51868-.73773 2.59808 2.59808 0 011.642.1759 9.4414 9.4414 0 00-1.3872.56171 7.71424 7.71424 0 00-1.14032.77343C331.64026 145.70378 330.99878 146.41026 330.2077 147.15952zM281.81268 148.72068a24.3793 24.3793 0 002.31385 3.731 21.17257 21.17257 0 002.90631 3.19348 20.28641 20.28641 0 003.465 2.56543 31.90444 31.90444 0 003.93592 1.95837 14.49759 14.49759 0 01-4.30255-1.26953 14.78014 14.78014 0 01-3.771-2.51513 15.26008 15.26008 0 01-2.879-3.49915A12.85908 12.85908 0 01281.81268 148.72068zM277.07849 136.752a51.9249 51.9249 0 01.41467-8.54144 42.59551 42.59551 0 011.79261-8.36584c-.15662 2.863-.45966 5.67132-.80091 8.48962C278.11975 131.14768 277.72717 133.95719 277.07849 136.752zM323.95813 161.00071a110.09637 110.09637 0 01-.49969-11.1405 108.81126 108.81126 0 01.49969-11.1405 108.84544 108.84544 0 01.49969 11.1405A110.13136 110.13136 0 01323.95813 161.00071z"></path><path fill="#f9977a" d="M314.16727,183.67211l-1.65237,3.036h-2.25238a3.9341,3.9341,0,0,0-3.66661,2.50821l-2.66722,6.85856s-.78057,3.90283,1.82131,2.86207a24.84507,24.84507,0,0,0,4.58418-5.98433l8.31776,8.20949v-6.128l3.599-4.81812Z"></path><path fill="#5e7c24" d="M303.92871,183.06553c.59424.936,1.1695,1.87439,1.80292,2.77747q.902,1.38189,1.87048,2.71447c1.29383,1.77332,2.61975,3.51685,4.03467,5.18494a64.27072,64.27072,0,0,0,4.45917,4.807l1.19073,1.13232c.40369.37049.83454.7085,1.24884,1.06909.79682.76661,1.72064,1.36194,2.56562,2.089a29.62436,29.62436,0,0,1-5.52045-3.71924,38.44861,38.44861,0,0,1-4.70838-4.73449,46.14423,46.14423,0,0,1-3.90728-5.40381A37.74643,37.74643,0,0,1,303.92871,183.06553Z"></path><path fill="#f9977a" d="M312.5149,186.70812h-2.25238a3.9341,3.9341,0,0,0-3.66661,2.50821l-2.66722,6.85856s-.78057,3.90283,1.82131,2.86207a24.84507,24.84507,0,0,0,4.58418-5.98433Z"></path><path fill="#935b50" d="M260.7832,335.53257a34.37968,34.37968,0,0,0,3.37274,1.49292,11.149,11.149,0,0,0,3.25025.72107,8.929,8.929,0,0,0,1.59381-.07,9.23928,9.23928,0,0,0,1.57251-.45593,10.88028,10.88028,0,0,0,1.58734-.73315c.53992-.28064,1.02435-.65918,1.63336-.955a8.99515,8.99515,0,0,1-.99267,1.69922,7.0059,7.0059,0,0,1-1.48523,1.375,6.79051,6.79051,0,0,1-1.889.91834c-.34576.079-.70038.13049-1.05335.19238a6.12718,6.12718,0,0,1-1.06658.02588,7.75723,7.75723,0,0,1-3.87171-1.32654A7.91274,7.91274,0,0,1,260.7832,335.53257Z"></path><path fill="#f9977a" d="M312.09152,327.20978l-.07085,8.32595s-10.9714,8.71635-25.02152,11.05822c0,0-4.29306,1.97131-4.29306,5.08339h42.324V335.53573l-.06523-8.326Z"></path><path fill="#d6694b" d="M325.0332,335.53254v16.14h-42.33c0-3.11,4.29993-5.08008,4.29993-5.08008,14.05-2.33984,25.02-11.05994,25.02-11.05994S318.76318,343.01265,325.0332,335.53254Z"></path><path fill="#935b50" d="M283.37688,349.57015h41.65321v2.10719l-42.90926.00012S280.92524,350.4,283.37688,349.57015Z"></path><path fill="#935b50" d="M296.25629 344.09251a3.107 3.107 0 012.01593.20288 3.411 3.411 0 011.60028 1.43994 2.79386 2.79386 0 01.22186 2.28406 2.58647 2.58647 0 01-1.38654 1.55078 14.54138 14.54138 0 00-.17431-1.74268 3.42451 3.42451 0 00-.41242-1.12768 9.49983 9.49983 0 00-.77539-1.14038C297.02606 345.13157 296.65765 344.68467 296.25629 344.09251zM312.02319 335.53257a34.37877 34.37877 0 003.37275 1.49292 11.14891 11.14891 0 003.25024.72107 8.929 8.929 0 001.59381-.07 9.2377 9.2377 0 001.57251-.45593 10.87689 10.87689 0 001.58734-.73315c.53992-.28064 1.02435-.65918 1.63336-.955a8.99485 8.99485 0 01-.99261 1.69922 7.00767 7.00767 0 01-1.48529 1.375 6.7897 6.7897 0 01-1.889.91834c-.3457.079-.70038.13049-1.05334.19238a6.12718 6.12718 0 01-1.06659.02588 7.75723 7.75723 0 01-3.87171-1.32654A7.91274 7.91274 0 01312.02319 335.53257z"></path></g></g></svg>